# xmcd
#
# Track frame offsets:
#	150
#	16247
#	30125
#	54488
#	68397
#	88346
#	106039
#	123263
#	134416
#	149952
#
# Disc length: 2324 seconds
#
# Revision: 1
# Processed by: cddbd v1.5.1PL0 Copyright (c) Steve Scherf et al.
# Submitted via: audiograbber 1.82.01
#
DISCID=8009120a
DTITLE=Damn Seagulls - One Night at Sirdie's
DYEAR=1900
DGENRE=Rock
TTITLE0=All Rise
TTITLE1=Brutus
TTITLE2=Heart on the Sleeve
TTITLE3=Stony Ground
TTITLE4=Helsinki Runaway
TTITLE5=Once upon a Time
TTITLE6=Further and away
TTITLE7=Where the Whales Go to Die
TTITLE8=Jesus Stole My Baby
TTITLE9=I'm Healed
EXTD=
EXTT0=
EXTT1=
EXTT2=
EXTT3=
EXTT4=
EXTT5=
EXTT6=
EXTT7=
EXTT8=
EXTT9=
PLAYORDER=
